<!-- Generated by IcoMoon.io -->
<svg version="1.1" xmlns="http://www.w3.org/2000/svg" width="32" height="32" viewBox="0 0 32 32">
<title>Client-6b</title>
<path fill="#404bbf" d="M16.471 15.829c-0.137-0.182-0.202-0.397-0.186-0.613v-0.889c0-0.272 0.062-0.479 0.185-0.621s0.336-0.212 0.637-0.212c0.283 0 0.484 0.060 0.602 0.181 0.13 0.154 0.193 0.342 0.178 0.532v0.209h-0.506v-0.212c0.002-0.069-0.003-0.138-0.015-0.207-0.007-0.047-0.033-0.090-0.072-0.123-0.052-0.035-0.117-0.052-0.183-0.048-0.069-0.004-0.138 0.014-0.193 0.051-0.044 0.036-0.073 0.084-0.084 0.136-0.015 0.073-0.021 0.146-0.020 0.22v1.079c-0.008 0.104 0.014 0.208 0.065 0.303 0.025 0.032 0.060 0.057 0.101 0.073s0.086 0.022 0.131 0.017c0.065 0.005 0.129-0.013 0.179-0.049 0.041-0.035 0.068-0.081 0.075-0.131 0.012-0.072 0.017-0.144 0.016-0.216v-0.219h0.506v0.2c0.014 0.198-0.047 0.394-0.175 0.559-0.116 0.132-0.314 0.198-0.605 0.198s-0.511-0.071-0.636-0.217z"></path>
<path fill="#404bbf" d="M18.577 15.838c-0.128-0.138-0.192-0.34-0.192-0.607v-0.935c0-0.264 0.064-0.464 0.192-0.599s0.342-0.203 0.641-0.203c0.297 0 0.51 0.068 0.638 0.203s0.193 0.335 0.193 0.599v0.935c0 0.264-0.065 0.466-0.195 0.606s-0.341 0.209-0.636 0.209c-0.294 0-0.512-0.071-0.641-0.208zM19.454 15.614c0.046-0.087 0.067-0.182 0.061-0.277v-1.145c0.006-0.093-0.015-0.186-0.060-0.271-0.026-0.033-0.061-0.059-0.103-0.075s-0.088-0.021-0.133-0.016c-0.045-0.005-0.092 0-0.134 0.016s-0.078 0.042-0.104 0.074c-0.046 0.085-0.067 0.178-0.061 0.271v1.15c-0.006 0.095 0.015 0.19 0.061 0.277 0.029 0.029 0.066 0.053 0.107 0.069s0.085 0.024 0.13 0.024c0.045 0 0.089-0.008 0.13-0.024s0.077-0.039 0.107-0.069v-0.005z"></path>
<path fill="#404bbf" d="M20.658 13.522h0.545l0.41 1.725 0.419-1.725h0.53l0.053 2.489h-0.392l-0.042-1.73-0.404 1.73h-0.314l-0.419-1.736-0.039 1.736h-0.396l0.049-2.489z"></path>
<path fill="#404bbf" d="M23.226 13.522h0.849c0.489 0 0.733 0.236 0.733 0.707 0 0.451-0.257 0.677-0.772 0.676h-0.289v1.106h-0.524l0.003-2.489zM23.95 14.586c0.052 0.006 0.104 0.002 0.154-0.012s0.095-0.036 0.134-0.067c0.060-0.084 0.087-0.183 0.075-0.281 0.003-0.076-0.006-0.152-0.025-0.226-0.007-0.025-0.021-0.048-0.039-0.068s-0.041-0.037-0.066-0.050c-0.073-0.030-0.153-0.044-0.234-0.040h-0.203v0.744h0.203z"></path>
<path fill="#404bbf" d="M25.563 13.522h0.563l0.577 2.489h-0.488l-0.114-0.574h-0.502l-0.117 0.574h-0.495l0.577-2.489zM26.044 15.149l-0.196-1.045-0.196 1.045h0.392z"></path>
<path fill="#404bbf" d="M27.169 13.522h0.367l0.702 1.42v-1.42h0.435v2.489h-0.349l-0.706-1.482v1.482h-0.449l0.001-2.489z"></path>
<path fill="#404bbf" d="M29.69 15.062l-0.584-1.537h0.491l0.356 0.987 0.334-0.987h0.481l-0.576 1.537v0.949h-0.503v-0.949z"></path>
<path fill="#404bbf" d="M17.279 17.1v0.13h-0.427v1.012h-0.179v-1.012h-0.43v-0.13h1.036z"></path>
<path fill="#404bbf" d="M18.619 18.241h-0.138c-0.014 0.001-0.028-0.003-0.039-0.011-0.010-0.007-0.018-0.016-0.023-0.026l-0.124-0.271h-0.593l-0.124 0.271c-0.003 0.011-0.010 0.022-0.019 0.031-0.011 0.008-0.025 0.011-0.039 0.011h-0.138l0.524-1.142h0.182l0.53 1.137zM17.752 17.817h0.494l-0.21-0.465c-0.015-0.035-0.028-0.071-0.039-0.108-0.007 0.022-0.014 0.043-0.020 0.061l-0.019 0.048-0.207 0.464z"></path>
<path fill="#404bbf" d="M19.522 18.129c0.033 0.001 0.066 0.001 0.098 0 0.028-0.003 0.056-0.007 0.084-0.014 0.026-0.005 0.051-0.012 0.075-0.021 0.023-0.008 0.046-0.018 0.070-0.028v-0.257h-0.21c-0.005 0-0.010-0-0.015-0.002s-0.009-0.004-0.013-0.007c-0.003-0.003-0.006-0.006-0.008-0.009s-0.003-0.008-0.003-0.011v-0.088h0.406v0.438c-0.033 0.020-0.068 0.039-0.105 0.054s-0.076 0.029-0.116 0.039c-0.043 0.011-0.087 0.019-0.131 0.023-0.051 0.005-0.102 0.007-0.153 0.007-0.090 0.001-0.18-0.014-0.264-0.042-0.078-0.027-0.15-0.068-0.209-0.119-0.058-0.052-0.104-0.113-0.135-0.181-0.033-0.076-0.049-0.156-0.048-0.237-0.001-0.081 0.015-0.162 0.047-0.239 0.030-0.068 0.076-0.129 0.135-0.181s0.131-0.092 0.209-0.118c0.090-0.029 0.185-0.044 0.281-0.043 0.049-0 0.097 0.003 0.146 0.010 0.043 0.006 0.084 0.016 0.125 0.029 0.037 0.012 0.072 0.027 0.105 0.045s0.063 0.038 0.091 0.060l-0.050 0.071c-0.004 0.006-0.010 0.012-0.017 0.016s-0.015 0.006-0.024 0.006c-0.012-0-0.023-0.003-0.032-0.009-0.016-0.007-0.032-0.016-0.051-0.027-0.022-0.012-0.046-0.022-0.070-0.031-0.031-0.011-0.063-0.019-0.096-0.025-0.044-0.007-0.088-0.010-0.133-0.010-0.069-0.001-0.138 0.010-0.202 0.032-0.058 0.020-0.111 0.051-0.154 0.090-0.043 0.041-0.077 0.089-0.097 0.142-0.047 0.124-0.047 0.257 0 0.381 0.023 0.054 0.059 0.103 0.105 0.144 0.043 0.039 0.095 0.070 0.153 0.090 0.067 0.020 0.137 0.027 0.207 0.023z"></path>
<path fill="#404bbf" d="M21.192 18.111h0.572v0.13h-0.747v-1.142h0.179l-0.004 1.012z"></path>
<path fill="#404bbf" d="M22.359 18.241h-0.179v-1.142h0.179v1.142z"></path>
<path fill="#404bbf" d="M23.025 17.105c0.011 0.005 0.020 0.012 0.027 0.021l0.766 0.861c-0.001-0.014-0.001-0.027 0-0.041 0-0.013 0-0.025 0-0.037v-0.814h0.156v1.146h-0.090c-0.013 0.001-0.027-0.001-0.039-0.006-0.011-0.006-0.020-0.013-0.028-0.022l-0.765-0.86c0 0.014 0 0.026 0 0.039s0 0.024 0 0.035v0.814h-0.15v-1.142h0.093c0.010 0 0.020 0.002 0.029 0.005z"></path>
<path fill="#404bbf" d="M25.293 17.1v0.126h-0.635v0.377h0.514v0.121h-0.514v0.39h0.635v0.126h-0.819v-1.139h0.819z"></path>
<path fill="#404bbf" d="M6.522 10.049l7.954 1.949v6.829l-7.954-1.948v-6.83zM6.011 9.467v7.744l8.974 2.199v-7.743l-8.974-2.2z"></path>
<path fill="#404bbf" d="M10.821 23.005l-8.975-2.201v-7.743l8.975 2.2v7.744z"></path>
<path fill="#404bbf" d="M6.16 9.961l7.851 1.924-3.339 2.882-7.852-1.925 3.34-2.881zM6.011 9.467l-4.165 3.594 8.975 2.2 4.164-3.594-8.974-2.2z"></path>
<path fill="#404bbf" d="M11.326 22.569l3.659-3.158-3.659-0.898v4.056z"></path>
</svg>
