<!-- Generated by IcoMoon.io -->
<svg version="1.1" xmlns="http://www.w3.org/2000/svg" width="32" height="32" viewBox="0 0 32 32">
<title>Client-1b</title>
<path fill="#404bbf" d="M11.692 9.538l2.156 2.054-4.002-0.002v9.967h10.462v-3.811l2.154 2.052v-10.26h-10.769zM20.213 17.505l-6.114-5.825h6.114v5.825zM18.315 20.099h-6.813v-6.703h0.482v6.249h6.332v0.454zM12.86 23.403l-0.254-0.522h-0.21l0.368 0.691v0.403h0.19v-0.403l0.368-0.691h-0.209l-0.254 0.522zM13.796 22.881h0.045l0.413 1.094h-0.198l-0.088-0.256h-0.423l-0.088 0.256h-0.198l0.412-1.094h0.126zM13.596 23.569h0.32l-0.16-0.464-0.16 0.464zM14.918 23.388c-0.008-0.011-0.016-0.021-0.024-0.031-0.028-0.037-0.050-0.073-0.065-0.107s-0.023-0.071-0.023-0.108c0-0.057 0.012-0.106 0.035-0.147s0.057-0.073 0.1-0.095c0.043-0.023 0.093-0.034 0.151-0.034 0.056 0 0.103 0.011 0.143 0.034s0.072 0.051 0.093 0.088c0.022 0.037 0.033 0.077 0.033 0.12 0 0.035-0.006 0.066-0.019 0.095s-0.030 0.055-0.052 0.078c-0.022 0.024-0.048 0.046-0.077 0.067l-0.076 0.055 0.217 0.256c0.007-0.014 0.014-0.029 0.019-0.044 0.019-0.048 0.028-0.101 0.028-0.16h0.156c0 0.053-0.005 0.103-0.016 0.151s-0.026 0.092-0.049 0.132c-0.009 0.017-0.019 0.033-0.031 0.048l0.16 0.189h-0.21l-0.064-0.075c-0.034 0.026-0.072 0.047-0.112 0.061-0.053 0.019-0.11 0.029-0.17 0.029-0.073 0-0.135-0.013-0.189-0.040s-0.094-0.063-0.123-0.11c-0.029-0.047-0.043-0.1-0.043-0.16 0-0.045 0.009-0.084 0.028-0.117s0.044-0.066 0.076-0.095c0.030-0.027 0.063-0.054 0.101-0.081zM15.007 23.498l-0.023 0.016c-0.027 0.022-0.046 0.042-0.059 0.062s-0.021 0.038-0.025 0.054-0.006 0.031-0.006 0.044c0 0.032 0.007 0.061 0.020 0.087s0.034 0.047 0.061 0.062c0.027 0.015 0.060 0.023 0.098 0.023 0.042 0 0.082-0.009 0.121-0.028 0.020-0.010 0.038-0.021 0.056-0.034l-0.243-0.286zM15.051 23.298l0.067-0.045c0.032-0.021 0.054-0.042 0.068-0.062s0.020-0.046 0.020-0.077c0-0.026-0.010-0.050-0.030-0.072s-0.048-0.033-0.085-0.033c-0.026 0-0.047 0.006-0.065 0.018s-0.031 0.027-0.040 0.047c-0.009 0.019-0.013 0.040-0.013 0.064 0 0.023 0.006 0.046 0.017 0.070s0.027 0.048 0.047 0.074c0.004 0.005 0.008 0.011 0.013 0.016zM16.964 23.619h-0.188c-0.006 0.048-0.017 0.088-0.035 0.121s-0.042 0.057-0.076 0.074c-0.033 0.017-0.076 0.026-0.13 0.026-0.044 0-0.082-0.009-0.113-0.026s-0.058-0.042-0.078-0.074c-0.020-0.032-0.035-0.070-0.045-0.115s-0.014-0.095-0.014-0.15v-0.092c0-0.058 0.005-0.11 0.016-0.155s0.027-0.084 0.049-0.115 0.048-0.055 0.080-0.071c0.032-0.016 0.070-0.024 0.113-0.024 0.053 0 0.095 0.009 0.128 0.027s0.057 0.043 0.074 0.077c0.017 0.034 0.028 0.074 0.033 0.121h0.188c-0.008-0.073-0.028-0.138-0.062-0.195s-0.080-0.101-0.14-0.133-0.134-0.048-0.221-0.048c-0.069 0-0.13 0.012-0.186 0.036s-0.101 0.059-0.14 0.104c-0.039 0.045-0.069 0.099-0.090 0.163s-0.031 0.135-0.031 0.213v0.091c0 0.079 0.010 0.15 0.030 0.213s0.050 0.118 0.089 0.163c0.039 0.045 0.085 0.079 0.139 0.104s0.115 0.036 0.183 0.036c0.088 0 0.163-0.016 0.225-0.048s0.109-0.076 0.143-0.131c0.034-0.056 0.054-0.12 0.060-0.192zM18.008 23.458v-0.060c0-0.083-0.011-0.157-0.033-0.222s-0.052-0.121-0.092-0.168c-0.040-0.047-0.088-0.082-0.143-0.106s-0.117-0.037-0.185-0.037c-0.067 0-0.128 0.012-0.184 0.037s-0.103 0.059-0.143 0.106c-0.040 0.046-0.071 0.102-0.093 0.168s-0.033 0.139-0.033 0.222v0.060c0 0.083 0.011 0.157 0.033 0.222s0.054 0.121 0.095 0.168 0.088 0.081 0.143 0.106c0.056 0.024 0.117 0.036 0.184 0.036s0.129-0.012 0.185-0.036c0.056-0.025 0.103-0.060 0.143-0.106s0.071-0.102 0.092-0.168 0.032-0.14 0.032-0.222zM17.819 23.397v0.062c0 0.061-0.006 0.115-0.018 0.162s-0.029 0.087-0.051 0.119c-0.023 0.032-0.050 0.056-0.083 0.073s-0.070 0.024-0.112 0.024c-0.042 0-0.079-0.008-0.111-0.024s-0.061-0.041-0.084-0.073c-0.023-0.033-0.041-0.072-0.053-0.119s-0.018-0.101-0.018-0.162v-0.062c0-0.061 0.006-0.115 0.018-0.162s0.029-0.086 0.052-0.118c0.023-0.032 0.051-0.056 0.083-0.072s0.070-0.025 0.111-0.025 0.079 0.008 0.112 0.025c0.033 0.016 0.061 0.040 0.083 0.072s0.040 0.071 0.052 0.118c0.012 0.047 0.018 0.1 0.018 0.162z"></path>
</svg>
