<!-- Generated by IcoMoon.io -->
<svg version="1.1" xmlns="http://www.w3.org/2000/svg" width="32" height="32" viewBox="0 0 32 32">
<title>Client-5b</title>
<path fill="#404bbf" d="M8.244 21.038c0.076 0.084 0.116 0.19 0.114 0.298 0.004 0.071-0.010 0.141-0.040 0.206s-0.077 0.123-0.136 0.17c-0.147 0.1-0.329 0.149-0.512 0.137h-0.9v-1.887h0.882c0.174-0.010 0.347 0.034 0.488 0.125 0.057 0.043 0.102 0.097 0.132 0.158s0.043 0.128 0.039 0.195c0.005 0.104-0.031 0.206-0.102 0.289-0.068 0.075-0.163 0.127-0.268 0.147 0.119 0.020 0.227 0.077 0.304 0.161zM7.188 20.753h0.377c0.086 0.006 0.171-0.017 0.24-0.063 0.028-0.023 0.050-0.052 0.064-0.084s0.020-0.066 0.017-0.101c0.003-0.034-0.003-0.068-0.017-0.1s-0.035-0.061-0.063-0.084c-0.071-0.047-0.159-0.070-0.247-0.064h-0.371v0.495zM7.841 21.477c0.030-0.024 0.054-0.053 0.069-0.086s0.022-0.069 0.020-0.105c0.002-0.036-0.005-0.073-0.021-0.106s-0.040-0.063-0.071-0.087c-0.074-0.049-0.164-0.073-0.256-0.068h-0.395v0.519h0.4c0.090 0.005 0.179-0.018 0.253-0.065z"></path>
<path fill="#404bbf" d="M10.046 21.849l-0.49-0.737h-0.184v0.737h-0.422v-1.887h0.799c0.201-0.013 0.4 0.045 0.556 0.16 0.112 0.102 0.179 0.237 0.19 0.381s-0.035 0.285-0.13 0.4c-0.099 0.102-0.233 0.169-0.381 0.192l0.522 0.754h-0.459zM9.371 20.854h0.345c0.24 0 0.359-0.095 0.359-0.286 0.002-0.039-0.004-0.078-0.019-0.114s-0.039-0.070-0.069-0.098c-0.076-0.057-0.173-0.084-0.271-0.076h-0.349l0.004 0.574z"></path>
<path fill="#404bbf" d="M12.352 21.469h-0.841l-0.149 0.38h-0.442l0.772-1.866h0.478l0.769 1.866h-0.442l-0.145-0.38zM12.239 21.183l-0.307-0.796-0.307 0.796h0.614z"></path>
<path fill="#404bbf" d="M15.238 21.849h-0.419l-0.939-1.283v1.283h-0.418v-1.887h0.418l0.939 1.291v-1.291h0.419v1.887z"></path>
<path fill="#404bbf" d="M17.628 21.397c-0.087 0.142-0.219 0.258-0.379 0.333-0.182 0.083-0.385 0.124-0.589 0.119h-0.745v-1.887h0.745c0.204-0.005 0.406 0.035 0.589 0.116 0.16 0.073 0.292 0.187 0.379 0.329 0.086 0.153 0.131 0.323 0.131 0.495s-0.045 0.341-0.131 0.495zM17.149 21.352c0.119-0.125 0.185-0.285 0.185-0.45s-0.066-0.325-0.185-0.45c-0.144-0.114-0.333-0.171-0.524-0.16h-0.291v1.221h0.291c0.191 0.011 0.38-0.047 0.524-0.16z"></path>
<path fill="#404bbf" d="M12.614 9.467c0 0 5.405 1.837 5.291 4.496v4.496c0 0-5.401-1.838-5.288-4.496l-0.002-4.496z"></path>
<path fill="#404bbf" d="M22.72 17.406c1.021-0.632 2.202-1.024 3.434-1.139v-1.408c-1.42 0.493-2.625 1.386-3.434 2.547z"></path>
<path fill="#404bbf" d="M22.106 17.83c0.836-1.515 2.284-2.683 4.047-3.266v-4.056c0 0-7.698 2.617-7.535 6.403v6.402c0 0 0.343-0.117 0.883-0.336 0-0.205 0-0.411 0.025-0.619 0.159-1.758 1.087-3.386 2.58-4.528z"></path>
<path fill="#404bbf" d="M21.374 20.208c0.040-0.444 0.131-0.883 0.269-1.311-0.93 0.986-1.492 2.209-1.61 3.498-0.011 0.122-0.017 0.243-0.020 0.369 0.437-0.189 0.946-0.425 1.481-0.702-0.136-0.61-0.177-1.234-0.12-1.854z"></path>
<path fill="#404bbf" d="M21.68 20.231c-0.051 0.561-0.019 1.125 0.095 1.679 2.103-1.133 4.466-2.883 4.375-4.999v-0.184c-1.503 0.151-2.908 0.743-4.001 1.683-0.256 0.583-0.414 1.197-0.469 1.821z"></path>
</svg>
