<!-- Generated by IcoMoon.io -->
<svg version="1.1" xmlns="http://www.w3.org/2000/svg" width="32" height="32" viewBox="0 0 32 32">
<title>Client-3b</title>
<path fill="#404bbf" d="M11.326 22.53c0.005 0 0.010 0.001 0.014 0.003s0.009 0.004 0.012 0.007l0.068 0.064c-0.053 0.052-0.118 0.093-0.191 0.121-0.086 0.031-0.178 0.046-0.271 0.044-0.087 0.002-0.174-0.012-0.255-0.041-0.073-0.026-0.138-0.065-0.192-0.115-0.055-0.051-0.097-0.112-0.124-0.177-0.030-0.073-0.044-0.15-0.043-0.227-0.001-0.078 0.015-0.155 0.047-0.228 0.030-0.066 0.074-0.126 0.132-0.177s0.127-0.089 0.204-0.115c0.084-0.028 0.173-0.041 0.262-0.041 0.083-0.002 0.166 0.011 0.244 0.037 0.067 0.025 0.129 0.060 0.183 0.102l-0.057 0.068c-0.004 0.005-0.009 0.009-0.014 0.012-0.007 0.004-0.015 0.006-0.023 0.005s-0.017-0.003-0.025-0.007l-0.031-0.018-0.042-0.023c-0.018-0.009-0.037-0.016-0.057-0.023-0.025-0.008-0.051-0.014-0.077-0.018-0.033-0.005-0.067-0.008-0.101-0.007-0.065-0.001-0.129 0.010-0.189 0.030-0.056 0.019-0.106 0.048-0.148 0.086-0.042 0.040-0.075 0.086-0.096 0.136-0.024 0.058-0.036 0.119-0.035 0.18-0.001 0.062 0.011 0.124 0.035 0.183 0.021 0.050 0.053 0.096 0.094 0.136 0.039 0.037 0.087 0.066 0.141 0.084 0.055 0.020 0.115 0.029 0.175 0.029 0.035 0 0.069-0.002 0.104-0.006 0.056-0.006 0.11-0.022 0.157-0.049 0.024-0.013 0.046-0.028 0.067-0.045 0.009-0.007 0.020-0.011 0.032-0.012z"></path>
<path fill="#404bbf" d="M13.288 22.209c0.001 0.077-0.014 0.154-0.046 0.226-0.028 0.065-0.071 0.125-0.128 0.175s-0.125 0.089-0.201 0.115c-0.166 0.054-0.35 0.054-0.516 0-0.075-0.026-0.143-0.066-0.2-0.115-0.057-0.051-0.101-0.111-0.129-0.177-0.061-0.146-0.061-0.306 0-0.452 0.029-0.066 0.073-0.126 0.129-0.178 0.057-0.048 0.125-0.086 0.2-0.111 0.166-0.055 0.35-0.055 0.516 0 0.075 0.026 0.144 0.065 0.2 0.115s0.1 0.11 0.128 0.175c0.031 0.073 0.047 0.15 0.046 0.227zM13.11 22.209c0.001-0.062-0.010-0.123-0.032-0.181-0.019-0.050-0.050-0.096-0.091-0.136-0.040-0.037-0.089-0.067-0.144-0.086-0.121-0.040-0.255-0.040-0.375 0-0.055 0.019-0.104 0.048-0.144 0.086-0.041 0.039-0.073 0.085-0.092 0.136-0.043 0.118-0.043 0.245 0 0.363 0.019 0.050 0.050 0.096 0.092 0.136 0.040 0.037 0.089 0.066 0.144 0.085 0.121 0.039 0.254 0.039 0.375 0 0.055-0.019 0.104-0.048 0.144-0.085 0.041-0.040 0.072-0.086 0.091-0.136 0.023-0.058 0.034-0.12 0.032-0.181z"></path>
<path fill="#404bbf" d="M14.627 22.4l0.018 0.041c0.007-0.015 0.013-0.028 0.020-0.041s0.014-0.027 0.022-0.040l0.434-0.674c0.008-0.012 0.016-0.019 0.025-0.021 0.012-0.003 0.024-0.004 0.036-0.004h0.128v1.096h-0.152v-0.806c0-0.010 0-0.022 0-0.034s-0.001-0.025 0-0.038l-0.437 0.684c-0.006 0.010-0.014 0.019-0.026 0.025s-0.024 0.009-0.037 0.009h-0.025c-0.013 0-0.026-0.003-0.037-0.009s-0.020-0.015-0.025-0.025l-0.449-0.688c0 0.013 0 0.026 0 0.039s0 0.025 0 0.035v0.806h-0.147v-1.094h0.128c0.012-0.001 0.024 0.001 0.036 0.004 0.011 0.004 0.019 0.012 0.024 0.021l0.443 0.675c0.009 0.012 0.016 0.026 0.022 0.039z"></path>
<path fill="#404bbf" d="M16.26 22.345v0.411h-0.17v-1.095h0.379c0.072-0.001 0.143 0.007 0.211 0.024 0.055 0.013 0.106 0.037 0.149 0.068 0.038 0.030 0.067 0.066 0.085 0.107 0.020 0.045 0.030 0.092 0.029 0.14 0.001 0.048-0.010 0.096-0.031 0.14-0.020 0.042-0.052 0.079-0.092 0.11-0.044 0.033-0.095 0.058-0.15 0.073-0.066 0.018-0.135 0.027-0.205 0.025l-0.206-0.003zM16.26 22.228h0.206c0.045 0 0.089-0.005 0.132-0.017 0.035-0.010 0.067-0.026 0.095-0.047 0.026-0.020 0.045-0.045 0.058-0.073 0.014-0.029 0.021-0.061 0.020-0.092 0.002-0.030-0.004-0.061-0.017-0.089s-0.033-0.054-0.059-0.075c-0.065-0.043-0.146-0.064-0.228-0.059h-0.206v0.451z"></path>
<path fill="#404bbf" d="M18.543 22.757h-0.134c-0.013 0-0.027-0.003-0.037-0.010-0.010-0.007-0.017-0.016-0.022-0.025l-0.116-0.265h-0.58l-0.12 0.265c-0.004 0.010-0.012 0.018-0.021 0.025-0.011 0.007-0.024 0.011-0.038 0.011h-0.134l0.51-1.097h0.177l0.516 1.097zM17.702 22.35h0.479l-0.202-0.446c-0.015-0.034-0.028-0.068-0.038-0.103l-0.020 0.057c-0.006 0.017-0.013 0.033-0.019 0.046l-0.2 0.446z"></path>
<path fill="#404bbf" d="M19.277 21.666c0.010 0.005 0.019 0.011 0.025 0.020l0.743 0.827c0-0.013 0-0.026 0-0.038s0-0.025 0-0.036v-0.776h0.152v1.097h-0.085c-0.012 0-0.024-0.002-0.035-0.007s-0.020-0.012-0.027-0.020l-0.742-0.826c0.001 0.013 0.001 0.025 0 0.038s0 0.023 0 0.033v0.782h-0.152v-1.097h0.090c0.011-0 0.021 0.001 0.031 0.005z"></path>
<path fill="#404bbf" d="M21.449 22.321v0.435h-0.17v-0.435l-0.47-0.66h0.152c0.013-0.001 0.026 0.003 0.037 0.009 0.009 0.007 0.017 0.015 0.023 0.025l0.294 0.426c0.012 0.018 0.022 0.035 0.031 0.051s0.015 0.031 0.021 0.046l0.022-0.047c0.008-0.017 0.018-0.034 0.029-0.050l0.29-0.429c0.006-0.009 0.014-0.016 0.022-0.023 0.010-0.008 0.023-0.011 0.037-0.011h0.154l-0.471 0.663z"></path>
<path fill="#404bbf" d="M14.543 19.821c0.074 0.008 0.149 0.015 0.224 0.020 1.146-0.438 2.115-1.155 2.787-2.061s1.016-1.961 0.99-3.034l-1.263-1.079c0.257 1.142 0.137 2.322-0.347 3.409s-1.312 2.037-2.391 2.745z"></path>
<path fill="#404bbf" d="M14.092 19.77l0.034 0.006c1.154-0.705 2.034-1.69 2.525-2.827s0.573-2.374 0.233-3.55l-1.799-1.537c0.728 1.263 1.020 2.677 0.845 4.077s-0.813 2.728-1.838 3.831z"></path>
<path fill="#404bbf" d="M20.192 16.013c-0.306 1.178-1.048 2.241-2.117 3.030-0.312 0.232-0.649 0.438-1.006 0.617 0.87-0.219 1.67-0.605 2.338-1.129s1.186-1.173 1.514-1.895l-0.73-0.623z"></path>
<path fill="#404bbf" d="M19.906 15.839l-1.039-0.887c-0.020 1.012-0.357 2.001-0.975 2.864s-1.496 1.569-2.542 2.044h0.005c0.233-0 0.466-0.012 0.697-0.036 0.977-0.341 1.841-0.883 2.513-1.578s1.133-1.522 1.34-2.406z"></path>
<path fill="#404bbf" d="M14.242 11.214l-1.239-1.060c-1.108 0.366-2.061 1.009-2.734 1.845s-1.035 1.826-1.038 2.841v0c0.004 1.121 0.446 2.209 1.255 3.092s1.94 1.509 3.213 1.781c1.137-1.183 1.802-2.645 1.9-4.173s-0.378-3.043-1.357-4.325z"></path>
<path fill="#404bbf" d="M22.769 15.676c-0.005-1.33-0.625-2.605-1.726-3.546s-2.593-1.471-4.15-1.475c-0.719-0.001-1.433 0.113-2.104 0.335l7.587 6.482c0.26-0.573 0.393-1.182 0.392-1.797z"></path>
</svg>
